<svg xmlns="http://www.w3.org/2000/svg" viewBox="0 0 400 90"><defs><style>.cls-1{fill:#fff;}</style></defs><g id="Layer_4" data-name="Layer 4"><path class="cls-1" d="M197.37,56.36v1.22q0,.59-.09,1.17h-2.06l-.74,0c0-.24,0-.48,0-.73a17.6,17.6,0,0,0-2.59-8.37c-.17-.28-.34-.55-.52-.82l.9-.92.55-.59.85-1,.21.27c.13.16.24.33.36.5l.35.51a2.33,2.33,0,0,1,.17.26l.16.26c.2.36.42.71.6,1.08l.27.55a4,4,0,0,1,.25.56c.15.39.32.76.44,1.15a12.33,12.33,0,0,1,.36,1.18l.15.6,0,.15,0,.15.05.3c0,.2.08.4.11.6s0,.21,0,.31l0,.3.07.61Z"/><path class="cls-1" d="M214,17.35c-.39.68-.78,1.35-1.18,2-.9,1.47-1.83,2.92-2.8,4.33a96,96,0,0,1-6.23,8.16,87.81,87.81,0,0,1-6.13,6.51l-1.13,1.06c-.26.24-.52.48-.79.71s-.79.71-1.19,1q-2.75,2.39-5.7,4.49a73.82,73.82,0,0,1-6.23,4l-5.47,2.81c-2.06.95-4.16,1.81-6.3,2.55-.4.15-.81.27-1.21.41s-.81.28-1.22.4l-1.22.37-1.23.35c-.82.24-1.65.43-2.48.64-.41.11-.84.2-1.25.29s-.84.2-1.26.28c-.84.16-1.68.34-2.53.48l-1.27.22-1.28.2c-.65.1-1.31.18-2,.27a17.32,17.32,0,0,1-3.21-2.38,16.95,16.95,0,0,1,17.13-28.36A24.17,24.17,0,0,1,214,17.35Z"/><path class="cls-1" d="M215,18.57v1.24c-.14.34-.29.68-.44,1-.71,1.59-1.49,3.15-2.32,4.68a73.52,73.52,0,0,1-5.69,8.81,71.51,71.51,0,0,1-6.25,7.23c-.4.41-.81.81-1.22,1.21s-.52.5-.79.74c-.42.4-.85.79-1.28,1.17-.93.83-1.89,1.63-2.87,2.4s-1.73,1.34-2.62,2l0,0a62,62,0,0,1-18.91,9.14l-1.27.34c-.43.11-.85.23-1.28.32l-1.28.3c-.43.1-.86.17-1.29.26-.86.17-1.73.31-2.59.44-.43.07-.87.12-1.3.18l-.66.08c-.21,0-.43.06-.65.07-.87.08-1.73.18-2.61.22l-1.3.07-1.31,0h-.8v-.67l.74-.11,1.27-.2,1.27-.22c.85-.14,1.69-.32,2.53-.48.42-.08.84-.19,1.26-.28s.84-.18,1.25-.29c.83-.21,1.66-.4,2.48-.64l1.23-.35,1.23-.37c.4-.12.81-.26,1.21-.4s.81-.26,1.21-.41a71.78,71.78,0,0,0,18-9.34q2.9-2.06,5.58-4.38l1.23-1.08.79-.72c.4-.36.79-.73,1.18-1.1A88.65,88.65,0,0,0,204.85,33a97.44,97.44,0,0,0,6.23-8.15q1.46-2.13,2.8-4.34C214.26,19.84,214.64,19.21,215,18.57Z"/><path class="cls-1" d="M230.85,67.27c-2.25-.91-4.53-1.66-6.82-2.35s-4.61-1.27-6.93-1.78a95,95,0,0,0-13.61-2l-.45,0-1.12-.07h-.21L200.07,61c-1.37-.05-2.75-.06-4.13,0-2.37,0-4.73.17-7.1.34-1.18.13-2.38.2-3.56.37l-1.77.22-1.78.27-.89.13c-.3,0-.59.11-.88.16l-1.78.3-.45.08-.44.09-.89.17c-.59.11-1.18.24-1.79.34.56-.26,1.11-.49,1.67-.74S177.4,62.2,178,62c1.14-.41,2.29-.85,3.46-1.18l1.75-.52,1.78-.43.89-.22.9-.18,1.81-.35,1.81-.28c.61-.08,1.21-.17,1.82-.23l1.83-.18c.62,0,1.23-.07,1.84-.11l.92,0,.92,0,1.84,0,.84,0,1,0h.7l.22,0h.21l.71,0,.93.07A62.06,62.06,0,0,1,217.66,61a57.81,57.81,0,0,1,6.85,2.61c1.1.52,2.19,1.07,3.26,1.66A30.84,30.84,0,0,1,230.85,67.27Z"/><path class="cls-1" d="M204.46,55.23l0,.82-.08.82c-.05.53-.12,1.05-.21,1.57l-.93-.07-.71,0h-.21l-.22,0h-.7l-1,0c0-.32,0-.65,0-1a23.85,23.85,0,0,0-2.77-11.47q-.3-.59-.63-1.14c.43-.38.86-.77,1.28-1.17.27-.24.53-.49.79-.74s.82-.8,1.22-1.21l.27.38c.15.23.29.47.43.71l.43.71a2.12,2.12,0,0,1,.21.36c.06.12.13.24.19.37.24.49.51,1,.71,1.49l.33.77c.11.25.2.51.29.78.17.52.36,1,.49,1.58a14.49,14.49,0,0,1,.38,1.61l.15.81,0,.21,0,.2.05.41c0,.28.07.55.09.82s0,.28,0,.42l0,.41,0,.82C204.48,54.68,204.47,55,204.46,55.23Z"/><path class="cls-1" d="M217.24,20.26a18.92,18.92,0,0,1,6,2.06,22.26,22.26,0,0,1,5.23,3.91c.19.2.39.39.57.6l.55.62.27.32c.08.11.18.21.26.32l.5.67c.16.22.33.44.49.67l.44.7c.15.24.3.48.44.72l.4.73c.13.25.27.49.39.74l.34.77.34.76.29.79.28.79c.08.27.15.54.23.81l.22.8c0,.14.07.27.1.41s.06.27.08.41c.11.55.23,1.1.29,1.65l.1.83a7.93,7.93,0,0,1,.07.84c0,.56.07,1.11,0,1.67s0,1.12-.06,1.67l-.08.84,0,.2,0,.21-.06.41c0,.28-.08.55-.13.83s0,.27-.08.4l-.09.41-.19.81c-.07.27-.15.54-.23.8l-.25.79-.29.78a22.41,22.41,0,0,1-3.2,5.69l-.25.31-.27.31-.53.61c-.18.2-.37.39-.56.58l-.58.55-.14.14-.15.13a3.88,3.88,0,0,1-.31.26l-.61.51c-.21.16-.44.31-.65.46l-.32.23-.33.22h0l-.19-.16h0a24.79,24.79,0,0,0,4.69-28.2A24.06,24.06,0,0,0,227,27.54a24.34,24.34,0,0,0-4.48-4.12l-.62-.44c-.21-.15-.43-.27-.64-.41l-.65-.41c-.22-.13-.45-.24-.67-.36l-.67-.37-.69-.32-.7-.33-.7-.29Z"/><path class="cls-1" d="M241.31,37.45a1,1,0,0,1-.84-.69.93.93,0,0,1,.65-1.15l12.34-3.39A.93.93,0,1,1,254,34l-12.33,3.39A1.1,1.1,0,0,1,241.31,37.45Z"/><path class="cls-1" d="M235,27a.91.91,0,0,1-.57-.24,1,1,0,0,1-.06-1.33l5-5.45a.94.94,0,0,1,1.38,1.27l-5,5.45A.92.92,0,0,1,235,27Z"/><path class="cls-1" d="M248.28,51.76l-.21,0L241,49.6a.93.93,0,1,1,.54-1.79l7.09,2.12a.94.94,0,0,1-.32,1.83Z"/><path class="cls-1" d="M151.8,81.19V78.37h3.93a3,3,0,0,0,1.39-.28,1.76,1.76,0,0,0,.78-.77,2.37,2.37,0,0,0,.25-1.12,2.84,2.84,0,0,0-.25-1.2,2.09,2.09,0,0,0-.78-.91,2.53,2.53,0,0,0-1.39-.34H153V86.58h-3.51V70.92h6.21a7,7,0,0,1,3.19.68A5,5,0,0,1,161,73.47a5.19,5.19,0,0,1,.71,2.71,4.87,4.87,0,0,1-.71,2.64,4.62,4.62,0,0,1-2.06,1.75,7.59,7.59,0,0,1-3.19.62Z"/><path class="cls-1" d="M176.85,79.06A9.24,9.24,0,0,1,176,83.2a6.36,6.36,0,0,1-2.38,2.66,7.07,7.07,0,0,1-7,0,6.4,6.4,0,0,1-2.4-2.66,9.24,9.24,0,0,1-.86-4.14v-.61a9.1,9.1,0,0,1,.86-4.14,6.39,6.39,0,0,1,2.38-2.67,7.07,7.07,0,0,1,7,0A6.34,6.34,0,0,1,176,74.31a9.24,9.24,0,0,1,.86,4.14Zm-3.54-.63a8.23,8.23,0,0,0-.37-2.67,3.4,3.4,0,0,0-1.1-1.63,2.76,2.76,0,0,0-1.74-.55,2.73,2.73,0,0,0-1.75.55,3.3,3.3,0,0,0-1.08,1.63,8.23,8.23,0,0,0-.37,2.67v.63a8.25,8.25,0,0,0,.37,2.66,3.57,3.57,0,0,0,1.09,1.65,2.81,2.81,0,0,0,1.76.56,2.77,2.77,0,0,0,1.74-.56,3.48,3.48,0,0,0,1.08-1.65,8.25,8.25,0,0,0,.37-2.66Z"/><path class="cls-1" d="M187.1,82.44a1.82,1.82,0,0,0-.22-.9,2.07,2.07,0,0,0-.84-.72,10.54,10.54,0,0,0-1.85-.73,18.9,18.9,0,0,1-2-.78,8,8,0,0,1-1.69-1,4.41,4.41,0,0,1-1.16-1.36,3.81,3.81,0,0,1-.43-1.83,3.71,3.71,0,0,1,.76-2.31,4.87,4.87,0,0,1,2.09-1.53,7.81,7.81,0,0,1,3-.55,7.2,7.2,0,0,1,3,.6,4.89,4.89,0,0,1,2,1.71,4.45,4.45,0,0,1,.73,2.54h-3.49a2.21,2.21,0,0,0-.26-1.08,1.65,1.65,0,0,0-.78-.74,3,3,0,0,0-1.34-.26,3.21,3.21,0,0,0-1.29.22,1.79,1.79,0,0,0-.78.59,1.47,1.47,0,0,0-.25.85,1.22,1.22,0,0,0,.35.85,3.46,3.46,0,0,0,1,.67c.45.2,1,.4,1.61.61a13.37,13.37,0,0,1,2.87,1.22A5.19,5.19,0,0,1,190,80.15a4.23,4.23,0,0,1,.59,2.26,3.92,3.92,0,0,1-.7,2.36,4.34,4.34,0,0,1-2,1.5,8,8,0,0,1-3,.52,8.65,8.65,0,0,1-2.32-.31,6.52,6.52,0,0,1-2.07-1A4.82,4.82,0,0,1,179,83.9a4.72,4.72,0,0,1-.55-2.35H182a2.92,2.92,0,0,0,.2,1.17,1.76,1.76,0,0,0,.58.76,2.37,2.37,0,0,0,.92.43,5,5,0,0,0,1.21.13,3,3,0,0,0,1.27-.22,1.54,1.54,0,0,0,.73-.58A1.42,1.42,0,0,0,187.1,82.44Z"/><path class="cls-1" d="M204.66,73.75H191.78V70.92h12.88Zm-4.73,12.83h-3.48V70.92h3.48Z"/><path class="cls-1" d="M209.89,86.58h-3.5V70.92h3.5Zm6.72,0h-7.86V83.76h7.86Z"/><path class="cls-1" d="M218.13,72a1.61,1.61,0,0,1,.51-1.23,1.93,1.93,0,0,1,1.36-.48,1.9,1.9,0,0,1,1.36.48,1.71,1.71,0,0,1,0,2.46,1.9,1.9,0,0,1-1.36.48,1.93,1.93,0,0,1-1.36-.48A1.61,1.61,0,0,1,218.13,72Zm3.57,14.63h-3.36V74.94h3.36Z"/><path class="cls-1" d="M227.4,86.58h-3.35V74.94h3.15l.2,2.49Zm-1.33-6.15a7.46,7.46,0,0,1,.57-3.06,4.52,4.52,0,0,1,1.59-2,4.26,4.26,0,0,1,2.39-.68,4.06,4.06,0,0,1,1.92.43,3,3,0,0,1,1.29,1.41,6.24,6.24,0,0,1,.46,2.65v7.36h-3.37V79.2a2.39,2.39,0,0,0-.2-1.08,1.09,1.09,0,0,0-.59-.53,2.93,2.93,0,0,0-.95-.14,2.2,2.2,0,0,0-1,.21,2,2,0,0,0-.7.61,2.62,2.62,0,0,0-.4.93,4.85,4.85,0,0,0-.13,1.18Z"/><path class="cls-1" d="M239.86,86.58H236.5V70.05h3.36Zm2.33-5.77-2.75,2.74-1.28-2.35,2.2-2.86,2.81-3.4h4Zm-1.76.48,2.38-1.94,4.73,7.23h-3.86Z"/></g></svg>