<?xml version="1.0" encoding="utf-8"?>
<!-- Generator: Adobe Illustrator 25.4.1, SVG Export Plug-In . SVG Version: 6.00 Build 0)  -->
<svg version="1.1" id="Layer_1" xmlns="http://www.w3.org/2000/svg" xmlns:xlink="http://www.w3.org/1999/xlink" x="0px" y="0px"
	 width="64px" height="64px" viewBox="0 0 64 64" enable-background="new 0 0 64 64" xml:space="preserve">
<g>
	<g>
		<path fill="#FFFFFF" d="M-43.759,37.975l0.009,0.321l-0.009,0.32c-0.008,0.206-0.023,0.412-0.045,0.617
			c-0.121-0.002-0.242-0.003-0.363-0.003l-0.28,0.001l-0.08,0l-0.087,0.001l-0.092,0l-0.18,0.006l-0.392,0.014
			c-0.001-0.127-0.004-0.254-0.011-0.38c-0.073-1.553-0.547-3.082-1.36-4.405c-0.087-0.145-0.178-0.288-0.274-0.429
			c0.16-0.16,0.318-0.323,0.474-0.488c0.096-0.101,0.192-0.204,0.287-0.307c0.152-0.165,0.301-0.332,0.448-0.501
			c0.038,0.047,0.075,0.094,0.113,0.141c0.066,0.086,0.125,0.176,0.188,0.264l0.186,0.266c0.032,0.044,0.06,0.09,0.088,0.136
			c0.028,0.046,0.057,0.092,0.084,0.139c0.108,0.187,0.223,0.371,0.315,0.567l0.145,0.29c0.05,0.096,0.092,0.195,0.132,0.296
			c0.08,0.201,0.167,0.398,0.231,0.605c0.068,0.205,0.143,0.408,0.189,0.619l0.078,0.314l0.02,0.079l0.015,0.079l0.029,0.159
			c0.02,0.106,0.04,0.212,0.057,0.318c0.01,0.053,0.015,0.107,0.021,0.16l0.018,0.16l0.033,0.32
			C-43.765,37.761-43.762,37.868-43.759,37.975z"/>
		<path fill="#FFFFFF" d="M-35.036,17.459c-0.204,0.356-0.412,0.708-0.623,1.057c-0.472,0.773-0.962,1.534-1.473,2.279
			c-1.021,1.49-2.111,2.925-3.276,4.291c-1.018,1.195-2.092,2.338-3.222,3.42c-0.196,0.188-0.394,0.374-0.593,0.557
			c-0.137,0.127-0.276,0.253-0.415,0.378c-0.207,0.187-0.415,0.37-0.626,0.552c-0.964,0.833-1.964,1.621-2.999,2.359
			c-1.056,0.752-2.15,1.45-3.276,2.092l-2.88,1.482c-1.08,0.498-2.185,0.947-3.312,1.341c-0.21,0.078-0.424,0.142-0.635,0.215
			c-0.212,0.071-0.424,0.146-0.639,0.208l-0.644,0.196c-0.215,0.064-0.432,0.121-0.647,0.183c-0.432,0.128-0.869,0.227-1.305,0.34
			c-0.218,0.057-0.439,0.101-0.658,0.152c-0.22,0.047-0.439,0.102-0.66,0.144c-0.443,0.088-0.884,0.183-1.33,0.255l-0.668,0.117
			l-0.672,0.101c-0.344,0.056-0.689,0.098-1.035,0.142c-0.597-0.342-1.163-0.758-1.686-1.251c-3.581-3.374-3.749-9.013-0.375-12.594
			c2.478-2.629,6.174-3.418,9.382-2.318c-0.109-3.266,1.033-6.574,3.452-9.14c4.814-5.109,12.856-5.347,17.964-0.534
			C-36.651,14.647-35.7,16.002-35.036,17.459z"/>
		<path fill="#FFFFFF" d="M-34.484,18.1v0.652c-0.076,0.18-0.153,0.358-0.232,0.536c-0.373,0.837-0.784,1.658-1.222,2.464
			c-0.881,1.611-1.884,3.16-2.992,4.633c-1.007,1.335-2.104,2.608-3.285,3.801c-0.211,0.215-0.426,0.426-0.643,0.636
			c-0.136,0.131-0.273,0.261-0.411,0.388c-0.223,0.209-0.448,0.414-0.677,0.616c-0.49,0.435-0.993,0.857-1.507,1.263
			c-0.45,0.357-0.909,0.702-1.376,1.036c-0.007,0.005-0.015,0.011-0.023,0.016c-3.014,2.146-6.394,3.794-9.945,4.803
			c-0.221,0.067-0.445,0.123-0.669,0.182c-0.223,0.058-0.446,0.12-0.672,0.169l-0.675,0.156c-0.225,0.052-0.453,0.091-0.679,0.136
			c-0.451,0.093-0.908,0.163-1.362,0.236c-0.227,0.037-0.456,0.061-0.684,0.092l-0.342,0.044c-0.114,0.015-0.228,0.029-0.342,0.038
			c-0.458,0.041-0.914,0.093-1.373,0.114l-0.687,0.039l-0.687,0.017c-0.14,0.005-0.281,0.007-0.421,0.008v-0.356
			c0.129-0.018,0.258-0.037,0.388-0.058l0.672-0.102l0.668-0.117c0.446-0.072,0.888-0.167,1.33-0.255
			c0.221-0.042,0.44-0.096,0.66-0.144c0.219-0.051,0.44-0.095,0.658-0.152c0.436-0.112,0.873-0.212,1.305-0.34
			c0.215-0.061,0.432-0.118,0.647-0.183l0.644-0.196c0.215-0.062,0.426-0.137,0.638-0.208c0.212-0.073,0.426-0.137,0.636-0.215
			c3.38-1.18,6.565-2.847,9.469-4.914c1.012-0.721,1.99-1.49,2.933-2.302c0.218-0.188,0.434-0.378,0.648-0.57
			c0.139-0.124,0.277-0.25,0.415-0.377c0.209-0.191,0.415-0.386,0.621-0.582c1.135-1.086,2.215-2.234,3.238-3.435
			c1.165-1.365,2.256-2.801,3.276-4.291c0.51-0.745,1-1.506,1.473-2.279C-34.875,18.77-34.677,18.436-34.484,18.1z"/>
		<path fill="#FFFFFF" d="M-26.151,43.712c-1.184-0.476-2.383-0.871-3.588-1.234c-1.207-0.356-2.421-0.67-3.642-0.937
			c-2.364-0.518-4.754-0.871-7.158-1.035c-0.079-0.006-0.158-0.011-0.237-0.016c-0.196-0.015-0.392-0.027-0.588-0.038
			c-0.037-0.002-0.074-0.004-0.112-0.006c-0.286-0.016-0.573-0.028-0.86-0.037c-0.723-0.023-1.447-0.028-2.171-0.02
			c-1.246,0-2.491,0.088-3.738,0.178c-0.621,0.069-1.247,0.108-1.868,0.197l-0.935,0.115l-0.932,0.143l-0.468,0.068
			c-0.157,0.02-0.31,0.056-0.466,0.081c-0.311,0.054-0.622,0.111-0.935,0.162l-0.235,0.039c-0.078,0.014-0.155,0.032-0.233,0.047
			l-0.467,0.093c-0.313,0.058-0.624,0.121-0.941,0.175c0.29-0.134,0.583-0.257,0.876-0.386c0.295-0.122,0.588-0.256,0.889-0.36
			c0.601-0.216,1.202-0.444,1.818-0.618l0.923-0.273l0.935-0.23l0.469-0.113c0.157-0.037,0.315-0.063,0.472-0.095
			c0.315-0.062,0.631-0.125,0.948-0.183c0.317-0.056,0.636-0.098,0.954-0.147c0.319-0.046,0.638-0.093,0.959-0.121
			c0.32-0.034,0.641-0.067,0.962-0.096c0.321-0.024,0.643-0.039,0.965-0.06l0.483-0.026l0.484-0.008
			c0.323-0.004,0.645-0.014,0.968-0.012l0.44,0.011l0.527,0.014l0.242,0.007l0.124,0.007l0.118,0.007l0.107,0.007l0.376,0.023
			c0.163,0.01,0.326,0.022,0.488,0.035c2.412,0.191,4.801,0.654,7.105,1.368c1.229,0.383,2.435,0.839,3.601,1.375
			c0.581,0.272,1.155,0.559,1.715,0.873C-27.213,42.995-26.666,43.333-26.151,43.712z"/>
		<path fill="#FFFFFF" d="M-40.026,37.382l-0.015,0.432l-0.039,0.429c-0.028,0.277-0.065,0.552-0.112,0.825
			c-0.162-0.013-0.325-0.025-0.488-0.035l-0.376-0.023l-0.107-0.007l-0.118-0.007l-0.124-0.007l-0.242-0.007l-0.527-0.014
			c0.009-0.171,0.015-0.341,0.018-0.512c0.032-2.093-0.478-4.186-1.458-6.031c-0.105-0.202-0.215-0.402-0.332-0.599
			c0.229-0.202,0.454-0.407,0.677-0.616c0.138-0.128,0.275-0.258,0.411-0.388c0.218-0.21,0.432-0.421,0.643-0.636
			c0.047,0.066,0.093,0.133,0.14,0.199c0.081,0.12,0.153,0.247,0.23,0.371l0.227,0.373c0.039,0.061,0.074,0.126,0.107,0.191
			c0.034,0.064,0.069,0.129,0.101,0.193c0.129,0.261,0.268,0.517,0.375,0.788l0.17,0.402c0.059,0.133,0.107,0.27,0.153,0.409
			c0.091,0.277,0.191,0.549,0.26,0.832c0.074,0.281,0.158,0.56,0.202,0.848l0.079,0.428l0.02,0.107l0.014,0.108l0.026,0.215
			c0.018,0.144,0.036,0.288,0.05,0.432c0.009,0.072,0.012,0.145,0.015,0.217l0.01,0.217l0.018,0.432
			C-40.017,37.093-40.021,37.238-40.026,37.382z"/>
		<g>
			<path fill="#FFFFFF" d="M-33.309,18.988c1.095,0.171,2.171,0.547,3.174,1.083c1.003,0.536,1.932,1.237,2.747,2.06
				c0.101,0.104,0.207,0.204,0.303,0.312l0.287,0.328c0.048,0.055,0.095,0.111,0.142,0.166c0.046,0.057,0.097,0.11,0.138,0.169
				l0.261,0.351c0.086,0.118,0.176,0.233,0.259,0.354c0.081,0.122,0.156,0.247,0.235,0.37c0.077,0.124,0.157,0.247,0.231,0.374
				l0.21,0.386c0.07,0.129,0.14,0.258,0.206,0.389l0.178,0.402l0.178,0.403l0.153,0.413l0.146,0.416
				c0.045,0.14,0.081,0.282,0.121,0.424l0.118,0.425c0.021,0.07,0.037,0.142,0.051,0.214c0.015,0.072,0.031,0.144,0.045,0.216
				c0.053,0.289,0.119,0.576,0.148,0.868l0.055,0.437c0.021,0.145,0.03,0.292,0.036,0.439c0.012,0.294,0.037,0.586,0.026,0.88
				c-0.005,0.294,0.001,0.587-0.034,0.879l-0.039,0.438l-0.01,0.109l-0.016,0.109l-0.033,0.217
				c-0.022,0.145-0.043,0.289-0.068,0.433c-0.01,0.072-0.027,0.144-0.044,0.215l-0.049,0.214l-0.098,0.426
				c-0.036,0.141-0.079,0.281-0.122,0.42l-0.129,0.416l-0.153,0.408c-0.416,1.082-0.984,2.097-1.686,2.991l-0.131,0.168l-0.14,0.161
				c-0.093,0.107-0.185,0.214-0.28,0.319c-0.091,0.107-0.194,0.205-0.294,0.304c-0.099,0.1-0.201,0.197-0.302,0.294l-0.076,0.072
				l-0.08,0.069c-0.053,0.046-0.107,0.091-0.161,0.136l-0.323,0.266c-0.111,0.085-0.228,0.163-0.341,0.244l-0.17,0.119l-0.173,0.115
				l0.004-0.004l-0.001,0l-0.099-0.086l0,0l0.001-0.001l0.002-0.002c0.755-0.763,1.413-1.618,1.956-2.54
				c0.548-0.919,0.983-1.904,1.289-2.929c0.306-1.024,0.482-2.086,0.523-3.153c0.041-1.067-0.052-2.139-0.276-3.182
				c-0.216-1.045-0.56-2.064-1.027-3.024c-0.467-0.96-1.056-1.861-1.748-2.676c-0.692-0.815-1.486-1.542-2.358-2.163l-0.326-0.233
				c-0.11-0.076-0.226-0.143-0.339-0.215l-0.341-0.213c-0.115-0.068-0.235-0.129-0.352-0.194l-0.353-0.192
				c-0.119-0.061-0.242-0.114-0.363-0.171l-0.365-0.169c-0.123-0.054-0.248-0.103-0.372-0.154L-33.309,18.988z"/>
			<g>
				<g>
					<path fill="#FFFFFF" d="M-20.648,28.027c-0.204-0.013-0.387-0.153-0.444-0.361c-0.072-0.262,0.082-0.533,0.344-0.605
						l6.487-1.784c0.262-0.072,0.533,0.082,0.605,0.344c0.072,0.262-0.082,0.533-0.344,0.605l-6.487,1.784
						C-20.54,28.025-20.595,28.03-20.648,28.027z"/>
				</g>
				<g>
					<path fill="#FFFFFF" d="M-23.987,22.551c-0.109-0.007-0.216-0.05-0.302-0.129c-0.2-0.184-0.213-0.496-0.029-0.696l2.638-2.866
						c0.184-0.2,0.496-0.213,0.696-0.029c0.2,0.184,0.213,0.496,0.029,0.696l-2.638,2.866
						C-23.698,22.507-23.844,22.56-23.987,22.551z"/>
				</g>
				<g>
					<path fill="#FFFFFF" d="M-16.985,35.555c-0.037-0.002-0.074-0.009-0.11-0.02l-3.732-1.114
						c-0.261-0.078-0.409-0.352-0.331-0.613s0.352-0.409,0.613-0.331l3.732,1.114c0.261,0.078,0.409,0.352,0.331,0.613
						C-16.55,35.428-16.761,35.569-16.985,35.555z"/>
				</g>
			</g>
		</g>
	</g>
	<g>
		<path fill="#FFFFFF" d="M-67.722,51.032v-1.481h2.064c0.302,0,0.546-0.049,0.732-0.147c0.187-0.098,0.324-0.233,0.413-0.404
			c0.089-0.171,0.133-0.368,0.133-0.591c0-0.226-0.044-0.437-0.133-0.633c-0.089-0.196-0.226-0.354-0.413-0.475
			c-0.187-0.121-0.431-0.181-0.732-0.181h-1.419v6.745h-1.843v-8.232h3.262c0.652,0,1.213,0.12,1.682,0.359
			c0.469,0.239,0.829,0.566,1.08,0.981c0.251,0.415,0.376,0.89,0.376,1.425c0,0.531-0.125,0.995-0.376,1.391
			c-0.251,0.396-0.611,0.702-1.08,0.919c-0.469,0.217-1.03,0.325-1.682,0.325H-67.722z"/>
		<path fill="#FFFFFF" d="M-54.548,49.913c0,0.844-0.15,1.57-0.449,2.177c-0.3,0.607-0.716,1.073-1.25,1.399
			c-0.533,0.326-1.147,0.489-1.84,0.489c-0.694,0-1.309-0.163-1.846-0.489c-0.537-0.326-0.957-0.792-1.261-1.399
			c-0.303-0.607-0.455-1.332-0.455-2.177V49.59c0-0.844,0.151-1.57,0.452-2.177c0.302-0.607,0.72-1.074,1.255-1.402
			c0.535-0.328,1.15-0.492,1.843-0.492c0.694,0,1.308,0.164,1.843,0.492c0.535,0.328,0.954,0.795,1.255,1.402
			c0.302,0.607,0.452,1.333,0.452,2.177V49.913z M-56.408,49.579c0-0.558-0.066-1.025-0.198-1.402
			c-0.132-0.377-0.324-0.662-0.577-0.857c-0.253-0.194-0.558-0.291-0.916-0.291c-0.366,0-0.673,0.097-0.922,0.291
			c-0.249,0.194-0.438,0.48-0.568,0.857c-0.13,0.377-0.195,0.844-0.195,1.402v0.334c0,0.55,0.066,1.016,0.198,1.397
			c0.132,0.381,0.323,0.67,0.574,0.868c0.251,0.198,0.559,0.297,0.924,0.297c0.358,0,0.662-0.099,0.913-0.297
			c0.251-0.198,0.441-0.487,0.571-0.868c0.13-0.381,0.195-0.846,0.195-1.397V49.579z"/>
		<path fill="#FFFFFF" d="M-49.16,51.688c0-0.181-0.038-0.337-0.113-0.469c-0.075-0.132-0.222-0.258-0.441-0.379
			c-0.219-0.121-0.543-0.249-0.972-0.384c-0.369-0.121-0.721-0.257-1.054-0.41c-0.334-0.153-0.63-0.332-0.888-0.537
			c-0.258-0.205-0.462-0.445-0.611-0.718c-0.149-0.273-0.223-0.593-0.223-0.958c0-0.467,0.133-0.874,0.399-1.218
			c0.266-0.345,0.631-0.613,1.097-0.806c0.465-0.192,0.998-0.288,1.597-0.288c0.611,0,1.144,0.107,1.6,0.319
			c0.456,0.213,0.812,0.512,1.069,0.896c0.256,0.384,0.384,0.829,0.384,1.334h-1.838c0-0.215-0.044-0.404-0.133-0.568
			c-0.089-0.164-0.225-0.292-0.41-0.384c-0.185-0.092-0.42-0.138-0.707-0.138c-0.271,0-0.499,0.039-0.681,0.116
			c-0.183,0.077-0.319,0.181-0.407,0.311c-0.089,0.13-0.133,0.278-0.133,0.444c0,0.17,0.061,0.319,0.184,0.447
			c0.122,0.128,0.301,0.246,0.534,0.353c0.234,0.107,0.515,0.214,0.842,0.319c0.599,0.185,1.103,0.4,1.51,0.645
			c0.407,0.245,0.714,0.535,0.922,0.871c0.207,0.336,0.311,0.733,0.311,1.193c0,0.483-0.124,0.896-0.37,1.241
			c-0.247,0.345-0.596,0.608-1.049,0.789c-0.452,0.181-0.984,0.271-1.594,0.271c-0.415,0-0.822-0.054-1.221-0.161
			c-0.4-0.107-0.762-0.274-1.088-0.5c-0.326-0.226-0.585-0.513-0.777-0.859c-0.192-0.347-0.288-0.758-0.288-1.233h1.843
			c0,0.241,0.035,0.445,0.105,0.611c0.07,0.166,0.171,0.301,0.305,0.404c0.134,0.104,0.296,0.178,0.486,0.223
			c0.19,0.045,0.402,0.068,0.636,0.068c0.275,0,0.498-0.038,0.67-0.113c0.171-0.075,0.299-0.177,0.382-0.305
			C-49.201,51.984-49.16,51.842-49.16,51.688z"/>
		<path fill="#FFFFFF" d="M-39.921,47.12h-6.773v-1.487h6.773V47.12z M-42.409,53.865h-1.832v-8.232h1.832V53.865z"/>
		<path fill="#FFFFFF" d="M-37.173,53.865h-1.838v-8.232h1.838V53.865z M-33.64,53.865h-4.133v-1.481h4.133V53.865z"/>
		<path fill="#FFFFFF" d="M-32.837,46.175c0-0.264,0.089-0.48,0.269-0.647c0.179-0.168,0.417-0.252,0.715-0.252
			c0.298,0,0.536,0.084,0.715,0.252c0.179,0.168,0.269,0.384,0.269,0.647c0,0.26-0.09,0.475-0.269,0.645
			c-0.179,0.17-0.417,0.254-0.715,0.254c-0.298,0-0.536-0.085-0.715-0.254C-32.747,46.65-32.837,46.435-32.837,46.175z
			 M-30.96,53.865h-1.77v-6.118h1.77V53.865z"/>
		<path fill="#FFFFFF" d="M-27.963,53.865h-1.764v-6.118h1.657l0.107,1.306V53.865z M-28.664,50.631c0-0.626,0.1-1.162,0.3-1.609
			c0.2-0.447,0.48-0.79,0.84-1.029c0.36-0.239,0.777-0.359,1.252-0.359c0.384,0,0.721,0.075,1.009,0.226
			c0.288,0.151,0.515,0.398,0.678,0.741c0.164,0.343,0.246,0.809,0.246,1.397v3.867h-1.775v-3.879c0-0.245-0.035-0.434-0.105-0.568
			c-0.07-0.134-0.173-0.226-0.311-0.277c-0.138-0.051-0.304-0.076-0.5-0.076c-0.204,0-0.379,0.038-0.526,0.113
			c-0.147,0.075-0.269,0.182-0.365,0.319c-0.096,0.138-0.167,0.301-0.212,0.489c-0.045,0.189-0.068,0.396-0.068,0.622
			L-28.664,50.631z"/>
		<path fill="#FFFFFF" d="M-21.41,53.865h-1.77v-8.69h1.77V53.865z M-20.183,50.834l-1.447,1.442l-0.673-1.238l1.153-1.504
			l1.481-1.787h2.12L-20.183,50.834z M-21.111,51.083l1.25-1.018l2.488,3.799h-2.03L-21.111,51.083z"/>
	</g>
</g>
<g>
	<g>
		<g>
			<linearGradient id="SVGID_1_" gradientUnits="userSpaceOnUse" x1="5.051" y1="29.5444" x2="26.2406" y2="29.5444">
				<stop  offset="0" style="stop-color:#00ADDE"/>
				<stop  offset="0.1716" style="stop-color:#00A1CF"/>
				<stop  offset="0.5077" style="stop-color:#0083A9"/>
				<stop  offset="0.9717" style="stop-color:#005770"/>
				<stop  offset="1" style="stop-color:#00546C"/>
			</linearGradient>
			<path fill="url(#SVGID_1_)" d="M26.203,35.488l-0.834-2.469c-0.126-0.374-0.531-0.574-0.905-0.448l-2.469,0.834
				c-0.11,0.037-0.204,0.098-0.28,0.176c-0.908-0.508-2.03-1.267-2.441-2.096c0,0,0,0,0,0c-0.004-0.012-0.008-0.025-0.012-0.037
				l-0.02-0.058l-0.098-0.29c0,0,0,0,0,0l-0.094-0.277c0,0,0,0,0,0l-0.236-0.699l-0.321-0.951l-0.15-0.444
				c-0.035-0.105-0.085-0.201-0.145-0.287c0,0,0,0,0-0.001c0.166-0.967,0.55-2.678,1.395-4.644c0.008-0.003,0.015-0.005,0.023-0.008
				l3.943-1.564c0.291-0.115,0.433-0.444,0.317-0.735l-1.564-3.943c-0.115-0.291-0.444-0.433-0.735-0.317l-3.943,1.564
				c-0.291,0.115-0.433,0.444-0.317,0.735l1.544,3.891c-0.13,0.923-0.555,3.298-1.608,4.536c-0.115,0.002-0.233,0.021-0.348,0.06
				l-2.719,0.918c-0.138,0.047-0.261,0.118-0.366,0.206c-0.976-0.313-2.634-0.944-4.464-2.064l-1.064-2.303
				c-0.109-0.236-0.389-0.339-0.625-0.23l-2.342,1.082c-0.236,0.109-0.339,0.389-0.23,0.625l1.082,2.342
				c0.109,0.236,0.389,0.339,0.625,0.23l2.163-1c0.876,0.242,3.41,1.036,4.463,2.36c0.01,0.064,0.025,0.127,0.046,0.19l0.919,2.719
				c0.015,0.044,0.032,0.086,0.052,0.127l-0.001,0c0,0,0.73,1.314-1.796,5.937l-1.275,0.431c-0.196,0.066-0.302,0.279-0.235,0.475
				l0.535,1.584c0.066,0.196,0.279,0.302,0.475,0.235l1.584-0.535c0.196-0.066,0.302-0.279,0.235-0.475l-0.451-1.337
				c0,0,0.252-3.043,2.686-5.855l-0.001,0l2.155-0.728c0.174,0.022,1.507,0.215,3.156,1.167c0.003,0.064,0.015,0.129,0.036,0.192
				l0.834,2.469c0.126,0.374,0.531,0.574,0.905,0.448l2.469-0.834C26.129,36.267,26.329,35.862,26.203,35.488z"/>
			<g>
				
					<linearGradient id="SVGID_00000179610898057006291700000002790333684205447332_" gradientUnits="userSpaceOnUse" x1="11.3354" y1="30.7781" x2="30.2425" y2="25.3204">
					<stop  offset="0" style="stop-color:#E5006B"/>
					<stop  offset="0.1281" style="stop-color:#DE0069"/>
					<stop  offset="0.3438" style="stop-color:#CB0064"/>
					<stop  offset="0.6206" style="stop-color:#AB005B"/>
					<stop  offset="0.9446" style="stop-color:#800249"/>
					<stop  offset="1" style="stop-color:#780145"/>
				</linearGradient>
				<path fill="url(#SVGID_00000179610898057006291700000002790333684205447332_)" d="M35.046,33.053
					c-0.353-0.524-0.726-1.038-1.037-1.591l-0.244-0.408l-0.121-0.205l-0.11-0.211l-0.439-0.844
					c-0.077-0.139-0.135-0.287-0.202-0.431l-0.195-0.434c-0.064-0.145-0.132-0.289-0.193-0.435l-0.174-0.443l-0.171-0.444
					l-0.086-0.222l-0.075-0.226l-0.3-0.904c-0.729-2.432-1.096-4.966-1.093-7.49c0.002-1.262,0.094-2.521,0.276-3.765
					c0.09-0.622,0.204-1.24,0.346-1.85c0.004-0.019,0.009-0.039,0.014-0.058c-2.965,5.814-7.178,10.991-12.283,15.06
					c-0.309,0.246-0.637,0.529-0.885,0.844c-0.293,0.372-0.474,0.789-0.381,1.245c0.111,0.542,0.609,0.937,1.139,1.096
					c0.53,0.159,1.095,0.128,1.648,0.11c5.698-0.187,11.438,1.171,16.452,3.883C36.257,34.613,35.627,33.852,35.046,33.053z"/>
				
					<radialGradient id="SVGID_00000162321393440496367980000017458195195419377805_" cx="37.5452" cy="23.5962" r="10.3195" gradientUnits="userSpaceOnUse">
					<stop  offset="0" style="stop-color:#E5006B"/>
					<stop  offset="0.1281" style="stop-color:#DE0069"/>
					<stop  offset="0.3438" style="stop-color:#CB0064"/>
					<stop  offset="0.6206" style="stop-color:#AB005B"/>
					<stop  offset="0.9446" style="stop-color:#800249"/>
					<stop  offset="1" style="stop-color:#780145"/>
				</radialGradient>
				<path fill="url(#SVGID_00000162321393440496367980000017458195195419377805_)" d="M38.362,10.464
					c-1.015-1.055-2.555-1.453-3.956-1.036c-1.328,0.394-1.861,0.931-2.429,2.154c-0.123,0.265-0.25,0.529-0.378,0.792
					c-0.109,0.891-0.175,1.783-0.211,2.674c-0.05,1.234-0.043,2.467,0.033,3.693c0.147,2.452,0.572,4.874,1.272,7.211l0.283,0.869
					l0.071,0.217l0.081,0.214l0.161,0.427l0.159,0.429c0.056,0.142,0.119,0.281,0.177,0.421c0.122,0.28,0.235,0.563,0.363,0.84
					l0.395,0.825l0.099,0.206l0.109,0.202l0.216,0.404c0.145,0.269,0.283,0.541,0.447,0.799l0.471,0.788
					c0.781,1.235,1.662,2.409,2.619,3.531c0.531,0.295,1.071,0.569,1.65,0.75c0.895,0.28,1.913,0.314,2.732-0.143
					c1.098-0.613,1.58-1.922,1.879-3.143c0.308-1.253,0.512-2.531,0.613-3.817C45.775,22.74,43.262,15.555,38.362,10.464z
					 M36.062,26.908c-0.133-0.22-0.253-0.448-0.373-0.676c-0.114-0.23-0.229-0.461-0.33-0.698c-0.107-0.234-0.197-0.476-0.291-0.717
					c-0.046-0.121-0.084-0.244-0.127-0.366c-0.042-0.121-0.083-0.244-0.119-0.368c-0.301-0.987-0.477-2.013-0.526-3.041
					c-0.023-0.515-0.011-1.031,0.038-1.541c0.027-0.256,0.06-0.51,0.108-0.762c0.049-0.251,0.106-0.502,0.188-0.743
					c-0.013,0.509,0.008,1.012,0.043,1.51c0.038,0.499,0.091,0.994,0.164,1.485c0.147,0.982,0.359,1.948,0.649,2.892
					c0.143,0.472,0.301,0.941,0.481,1.401c0.083,0.233,0.185,0.459,0.276,0.69c0.047,0.115,0.1,0.227,0.15,0.34
					c0.049,0.114,0.097,0.229,0.152,0.34c0.416,0.904,0.894,1.784,1.396,2.671C37.209,28.614,36.588,27.79,36.062,26.908z
					 M39.89,23.814c-0.053,0.455-0.21,0.896-0.452,1.277c-0.243,0.382-0.576,0.701-0.956,0.931
					c-0.381,0.227-0.808,0.368-1.239,0.393c0.828-0.236,1.514-0.79,1.895-1.5c0.187-0.356,0.303-0.746,0.334-1.142
					c0.032-0.394-0.02-0.796-0.148-1.17c-0.26-0.748-0.846-1.372-1.584-1.694c-0.37-0.162-0.776-0.241-1.189-0.24
					c-0.414-0.009-0.831,0.084-1.228,0.246c0.351-0.248,0.774-0.408,1.214-0.461c0.439-0.059,0.9-0.016,1.328,0.132
					c0.427,0.149,0.823,0.397,1.148,0.719c0.324,0.322,0.577,0.719,0.73,1.153c0.031,0.11,0.067,0.22,0.092,0.331l0.032,0.169
					c0.009,0.057,0.023,0.112,0.026,0.17C39.913,23.357,39.919,23.587,39.89,23.814z"/>
			</g>
		</g>
		<g>
			<g>
				
					<linearGradient id="SVGID_00000174567444173901495730000015255590784532848271_" gradientUnits="userSpaceOnUse" x1="48.4318" y1="23.2551" x2="57.463" y2="18.8369">
					<stop  offset="0" style="stop-color:#E5006B"/>
					<stop  offset="0.1281" style="stop-color:#DE0069"/>
					<stop  offset="0.3438" style="stop-color:#CB0064"/>
					<stop  offset="0.6206" style="stop-color:#AB005B"/>
					<stop  offset="0.9446" style="stop-color:#800249"/>
					<stop  offset="1" style="stop-color:#780145"/>
				</linearGradient>
				<path fill="url(#SVGID_00000174567444173901495730000015255590784532848271_)" d="M49.326,22.249
					c-0.282-0.031-0.526-0.238-0.592-0.531c-0.082-0.369,0.15-0.734,0.518-0.817l9.119-2.039c0.368-0.082,0.734,0.15,0.817,0.518
					c0.082,0.369-0.15,0.734-0.518,0.817l-9.119,2.039C49.475,22.254,49.399,22.257,49.326,22.249z"/>
			</g>
			<g>
				
					<linearGradient id="SVGID_00000035495325773710617150000001330142143776119196_" gradientUnits="userSpaceOnUse" x1="43.665" y1="13.5113" x2="52.6962" y2="9.0931">
					<stop  offset="0" style="stop-color:#E5006B"/>
					<stop  offset="0.1281" style="stop-color:#DE0069"/>
					<stop  offset="0.3438" style="stop-color:#CB0064"/>
					<stop  offset="0.6206" style="stop-color:#AB005B"/>
					<stop  offset="0.9446" style="stop-color:#800249"/>
					<stop  offset="1" style="stop-color:#780145"/>
				</linearGradient>
				<path fill="url(#SVGID_00000035495325773710617150000001330142143776119196_)" d="M45.061,14.428
					c-0.15-0.017-0.296-0.083-0.411-0.2c-0.265-0.269-0.262-0.702,0.007-0.967l3.852-3.799c0.269-0.265,0.702-0.262,0.967,0.007
					c0.265,0.269,0.262,0.702-0.007,0.967l-3.852,3.799C45.465,14.386,45.259,14.45,45.061,14.428z"/>
			</g>
			<g>
				
					<linearGradient id="SVGID_00000072962776338749530670000005833181874486132383_" gradientUnits="userSpaceOnUse" x1="52.2093" y1="30.9767" x2="61.2405" y2="26.5586">
					<stop  offset="0" style="stop-color:#E5006B"/>
					<stop  offset="0.1281" style="stop-color:#DE0069"/>
					<stop  offset="0.3438" style="stop-color:#CB0064"/>
					<stop  offset="0.6206" style="stop-color:#AB005B"/>
					<stop  offset="0.9446" style="stop-color:#800249"/>
					<stop  offset="1" style="stop-color:#780145"/>
				</linearGradient>
				<path fill="url(#SVGID_00000072962776338749530670000005833181874486132383_)" d="M53.901,32.939
					c-0.051-0.006-0.102-0.017-0.152-0.035l-5.103-1.797c-0.356-0.125-0.543-0.516-0.418-0.872s0.516-0.543,0.872-0.418l5.103,1.797
					c0.356,0.125,0.543,0.516,0.418,0.872C54.514,32.792,54.211,32.973,53.901,32.939z"/>
			</g>
		</g>
	</g>
	<g>
		
			<radialGradient id="SVGID_00000105422208789835077640000004762717547664531858_" cx="8.168" cy="50.1686" r="5.7534" gradientUnits="userSpaceOnUse">
			<stop  offset="0" style="stop-color:#00ADDE"/>
			<stop  offset="0.1716" style="stop-color:#00A1CF"/>
			<stop  offset="0.5077" style="stop-color:#0083A9"/>
			<stop  offset="0.9717" style="stop-color:#005770"/>
			<stop  offset="1" style="stop-color:#00546C"/>
		</radialGradient>
		<path fill="url(#SVGID_00000105422208789835077640000004762717547664531858_)" d="M6.868,51.65v2.987H4.795v-8.936h3.152
			c0.63,0,1.17,0.075,1.622,0.224c0.452,0.149,0.824,0.355,1.116,0.616c0.292,0.262,0.508,0.57,0.647,0.926
			c0.139,0.356,0.209,0.74,0.209,1.153c0,0.446-0.072,0.855-0.215,1.227c-0.143,0.372-0.362,0.691-0.656,0.957
			c-0.294,0.266-0.668,0.473-1.119,0.622c-0.452,0.149-0.986,0.224-1.604,0.224H6.868z M6.868,50.086h1.079
			c0.54,0,0.928-0.129,1.165-0.386c0.237-0.258,0.356-0.617,0.356-1.079c0-0.204-0.031-0.39-0.092-0.558
			c-0.061-0.168-0.154-0.312-0.279-0.432c-0.125-0.121-0.282-0.214-0.472-0.279c-0.19-0.065-0.416-0.098-0.678-0.098H6.868V50.086z"
			/>
		
			<radialGradient id="SVGID_00000138550852368456840740000006680981679419423364_" cx="16.7968" cy="50.1686" r="5.5223" gradientUnits="userSpaceOnUse">
			<stop  offset="0" style="stop-color:#00ADDE"/>
			<stop  offset="0.1716" style="stop-color:#00A1CF"/>
			<stop  offset="0.5077" style="stop-color:#0083A9"/>
			<stop  offset="0.9717" style="stop-color:#005770"/>
			<stop  offset="1" style="stop-color:#00546C"/>
		</radialGradient>
		<path fill="url(#SVGID_00000138550852368456840740000006680981679419423364_)" d="M21.439,50.166c0,0.646-0.111,1.247-0.334,1.803
			c-0.223,0.556-0.537,1.04-0.941,1.45c-0.405,0.411-0.892,0.733-1.463,0.966c-0.57,0.233-1.203,0.35-1.898,0.35
			c-0.695,0-1.329-0.117-1.901-0.35c-0.572-0.233-1.062-0.555-1.469-0.966c-0.407-0.411-0.722-0.894-0.944-1.45
			c-0.223-0.556-0.334-1.157-0.334-1.803c0-0.646,0.111-1.247,0.334-1.803c0.223-0.556,0.538-1.038,0.944-1.447
			c0.407-0.409,0.896-0.73,1.469-0.963c0.572-0.233,1.206-0.35,1.901-0.35c0.695,0,1.328,0.118,1.898,0.353
			c0.57,0.235,1.058,0.557,1.463,0.966c0.405,0.409,0.719,0.891,0.941,1.447C21.328,48.925,21.439,49.524,21.439,50.166z
			 M19.317,50.166c0-0.442-0.057-0.839-0.172-1.193c-0.115-0.354-0.279-0.653-0.494-0.898c-0.215-0.245-0.477-0.433-0.788-0.564
			c-0.311-0.131-0.664-0.196-1.061-0.196c-0.401,0-0.757,0.065-1.07,0.196c-0.313,0.131-0.576,0.319-0.791,0.564
			c-0.215,0.245-0.379,0.545-0.494,0.898c-0.114,0.354-0.172,0.751-0.172,1.193c0,0.446,0.057,0.845,0.172,1.199
			c0.114,0.354,0.279,0.653,0.494,0.898c0.215,0.245,0.478,0.432,0.791,0.561c0.313,0.129,0.669,0.193,1.07,0.193
			c0.397,0,0.75-0.064,1.061-0.193c0.311-0.129,0.573-0.316,0.788-0.561c0.215-0.245,0.379-0.545,0.494-0.898
			C19.26,51.011,19.317,50.611,19.317,50.166z"/>
		
			<radialGradient id="SVGID_00000097499035380121168470000004083596764734972861_" cx="24.9166" cy="50.1686" r="5.3246" gradientUnits="userSpaceOnUse">
			<stop  offset="0" style="stop-color:#00ADDE"/>
			<stop  offset="0.1716" style="stop-color:#00A1CF"/>
			<stop  offset="0.5077" style="stop-color:#0083A9"/>
			<stop  offset="0.9717" style="stop-color:#005770"/>
			<stop  offset="1" style="stop-color:#00546C"/>
		</radialGradient>
		<path fill="url(#SVGID_00000097499035380121168470000004083596764734972861_)" d="M27.413,47.516
			c-0.061,0.098-0.126,0.172-0.193,0.221c-0.067,0.049-0.154,0.074-0.261,0.074c-0.094,0-0.195-0.03-0.304-0.089
			c-0.108-0.059-0.231-0.126-0.368-0.199c-0.137-0.074-0.293-0.14-0.469-0.199c-0.176-0.059-0.376-0.089-0.601-0.089
			c-0.388,0-0.678,0.083-0.868,0.248c-0.19,0.166-0.285,0.389-0.285,0.672c0,0.18,0.057,0.329,0.172,0.448
			c0.114,0.119,0.265,0.221,0.451,0.307c0.186,0.086,0.399,0.165,0.638,0.236c0.239,0.072,0.483,0.151,0.733,0.239
			c0.249,0.088,0.494,0.191,0.733,0.31c0.239,0.119,0.452,0.27,0.638,0.454c0.186,0.184,0.336,0.408,0.451,0.672
			c0.114,0.264,0.172,0.582,0.172,0.954c0,0.413-0.072,0.799-0.215,1.159c-0.143,0.36-0.351,0.674-0.622,0.941
			c-0.272,0.268-0.607,0.478-1.006,0.632c-0.399,0.153-0.852,0.23-1.358,0.23c-0.278,0-0.561-0.029-0.849-0.086
			s-0.567-0.138-0.837-0.242c-0.27-0.104-0.523-0.228-0.76-0.371c-0.237-0.143-0.444-0.303-0.619-0.478l0.613-0.969
			c0.045-0.074,0.108-0.133,0.19-0.178c0.082-0.045,0.17-0.067,0.264-0.067c0.123,0,0.246,0.039,0.371,0.117
			c0.125,0.078,0.266,0.164,0.423,0.258c0.157,0.094,0.338,0.18,0.543,0.258c0.204,0.078,0.446,0.117,0.724,0.117
			c0.376,0,0.668-0.083,0.877-0.248c0.209-0.166,0.313-0.428,0.313-0.788c0-0.209-0.057-0.378-0.172-0.509
			c-0.114-0.131-0.265-0.239-0.451-0.325c-0.186-0.086-0.398-0.161-0.635-0.227c-0.237-0.065-0.48-0.138-0.73-0.218
			c-0.249-0.08-0.493-0.178-0.73-0.294c-0.237-0.117-0.449-0.27-0.635-0.46c-0.186-0.19-0.336-0.427-0.451-0.711
			c-0.114-0.284-0.172-0.635-0.172-1.052c0-0.335,0.067-0.662,0.202-0.981s0.333-0.603,0.595-0.852
			c0.262-0.249,0.583-0.449,0.963-0.598c0.38-0.149,0.816-0.224,1.306-0.224c0.274,0,0.541,0.021,0.8,0.064
			c0.26,0.043,0.506,0.106,0.739,0.19c0.233,0.084,0.451,0.184,0.653,0.3c0.202,0.117,0.383,0.248,0.543,0.396L27.413,47.516z"/>
		
			<radialGradient id="SVGID_00000139279237932006735270000011989382525191084675_" cx="32.0184" cy="50.1686" r="5.4554" gradientUnits="userSpaceOnUse">
			<stop  offset="0" style="stop-color:#00ADDE"/>
			<stop  offset="0.1716" style="stop-color:#00A1CF"/>
			<stop  offset="0.5077" style="stop-color:#0083A9"/>
			<stop  offset="0.9717" style="stop-color:#005770"/>
			<stop  offset="1" style="stop-color:#00546C"/>
		</radialGradient>
		<path fill="url(#SVGID_00000139279237932006735270000011989382525191084675_)" d="M35.569,45.701v1.644h-2.514v7.292h-2.073
			v-7.292h-2.514v-1.644H35.569z"/>
	</g>
	<g>
		
			<linearGradient id="SVGID_00000085214384651742933450000003132358473599526822_" gradientUnits="userSpaceOnUse" x1="40.0176" y1="42.3299" x2="40.0176" y2="56.2347">
			<stop  offset="0" style="stop-color:#E4187D"/>
			<stop  offset="0.1303" style="stop-color:#E3187B"/>
			<stop  offset="0.2669" style="stop-color:#DE1874"/>
			<stop  offset="0.4064" style="stop-color:#D61769"/>
			<stop  offset="0.5478" style="stop-color:#CB1759"/>
			<stop  offset="0.6909" style="stop-color:#BC1646"/>
			<stop  offset="0.8352" style="stop-color:#AA142E"/>
			<stop  offset="0.978" style="stop-color:#941212"/>
			<stop  offset="1" style="stop-color:#90120D"/>
		</linearGradient>
		<path fill="url(#SVGID_00000085214384651742933450000003132358473599526822_)" d="M38.273,54.011h4.115v0.534h-4.741v-8.678h0.626
			V54.011z"/>
		
			<linearGradient id="SVGID_00000070110225776997124520000006986268636795432610_" gradientUnits="userSpaceOnUse" x1="44.0958" y1="42.3299" x2="44.0958" y2="56.2347">
			<stop  offset="0" style="stop-color:#E4187D"/>
			<stop  offset="0.1303" style="stop-color:#E3187B"/>
			<stop  offset="0.2669" style="stop-color:#DE1874"/>
			<stop  offset="0.4064" style="stop-color:#D61769"/>
			<stop  offset="0.5478" style="stop-color:#CB1759"/>
			<stop  offset="0.6909" style="stop-color:#BC1646"/>
			<stop  offset="0.8352" style="stop-color:#AA142E"/>
			<stop  offset="0.978" style="stop-color:#941212"/>
			<stop  offset="1" style="stop-color:#90120D"/>
		</linearGradient>
		<path fill="url(#SVGID_00000070110225776997124520000006986268636795432610_)" d="M44.639,46.339c0,0.074-0.015,0.142-0.046,0.205
			c-0.031,0.063-0.071,0.12-0.12,0.169c-0.049,0.049-0.106,0.088-0.172,0.117c-0.065,0.029-0.135,0.043-0.209,0.043
			c-0.074,0-0.143-0.014-0.208-0.043c-0.065-0.029-0.123-0.067-0.172-0.117c-0.049-0.049-0.088-0.105-0.117-0.169
			c-0.029-0.063-0.043-0.132-0.043-0.205c0-0.074,0.014-0.144,0.043-0.212c0.029-0.067,0.067-0.126,0.117-0.175
			c0.049-0.049,0.106-0.088,0.172-0.117c0.065-0.029,0.135-0.043,0.208-0.043c0.074,0,0.143,0.014,0.209,0.043
			c0.065,0.029,0.123,0.067,0.172,0.117c0.049,0.049,0.089,0.107,0.12,0.175C44.623,46.194,44.639,46.265,44.639,46.339z
			 M44.381,48.442v6.102h-0.583v-6.102H44.381z"/>
		
			<linearGradient id="SVGID_00000073000847778741068120000009609701341144129448_" gradientUnits="userSpaceOnUse" x1="48.9376" y1="42.3299" x2="48.9376" y2="56.2347">
			<stop  offset="0" style="stop-color:#E4187D"/>
			<stop  offset="0.1303" style="stop-color:#E3187B"/>
			<stop  offset="0.2669" style="stop-color:#DE1874"/>
			<stop  offset="0.4064" style="stop-color:#D61769"/>
			<stop  offset="0.5478" style="stop-color:#CB1759"/>
			<stop  offset="0.6909" style="stop-color:#BC1646"/>
			<stop  offset="0.8352" style="stop-color:#AA142E"/>
			<stop  offset="0.978" style="stop-color:#941212"/>
			<stop  offset="1" style="stop-color:#90120D"/>
		</linearGradient>
		<path fill="url(#SVGID_00000073000847778741068120000009609701341144129448_)" d="M46.54,54.544v-6.102h0.319
			c0.106,0,0.168,0.051,0.184,0.153l0.055,0.92c0.278-0.352,0.602-0.635,0.972-0.849c0.37-0.215,0.782-0.322,1.236-0.322
			c0.335,0,0.631,0.053,0.886,0.159c0.255,0.106,0.467,0.26,0.635,0.46c0.168,0.2,0.294,0.442,0.38,0.724
			c0.086,0.282,0.129,0.601,0.129,0.957v3.901h-0.583v-3.901c0-0.572-0.131-1.021-0.393-1.346c-0.262-0.325-0.662-0.488-1.202-0.488
			c-0.401,0-0.773,0.103-1.116,0.31c-0.343,0.207-0.65,0.49-0.92,0.849v4.575H46.54z"/>
		
			<linearGradient id="SVGID_00000149350519307668633550000000970421994911534515_" gradientUnits="userSpaceOnUse" x1="55.5762" y1="42.3299" x2="55.5762" y2="56.2347">
			<stop  offset="0" style="stop-color:#E4187D"/>
			<stop  offset="0.1303" style="stop-color:#E3187B"/>
			<stop  offset="0.2669" style="stop-color:#DE1874"/>
			<stop  offset="0.4064" style="stop-color:#D61769"/>
			<stop  offset="0.5478" style="stop-color:#CB1759"/>
			<stop  offset="0.6909" style="stop-color:#BC1646"/>
			<stop  offset="0.8352" style="stop-color:#AA142E"/>
			<stop  offset="0.978" style="stop-color:#941212"/>
			<stop  offset="1" style="stop-color:#90120D"/>
		</linearGradient>
		<path fill="url(#SVGID_00000149350519307668633550000000970421994911534515_)" d="M53.819,45.621v5.44h0.282
			c0.057,0,0.111-0.008,0.163-0.025c0.051-0.016,0.107-0.055,0.169-0.117l2.447-2.324c0.045-0.045,0.091-0.082,0.138-0.11
			c0.047-0.029,0.107-0.043,0.181-0.043h0.515L55.021,51c-0.041,0.041-0.08,0.079-0.117,0.113c-0.037,0.035-0.078,0.064-0.123,0.089
			c0.065,0.033,0.121,0.072,0.166,0.117c0.045,0.045,0.092,0.094,0.141,0.147l2.827,3.079h-0.509c-0.057,0-0.108-0.011-0.153-0.034
			c-0.045-0.022-0.09-0.058-0.135-0.107l-2.564-2.748c-0.07-0.074-0.133-0.124-0.19-0.15c-0.057-0.027-0.147-0.04-0.27-0.04h-0.276
			v3.079h-0.583v-8.923H53.819z"/>
	</g>
</g>
</svg>
