<?xml version="1.0" encoding="utf-8"?>
<!-- Generator: Adobe Illustrator 25.4.1, SVG Export Plug-In . SVG Version: 6.00 Build 0)  -->
<svg version="1.1" id="Layer_1" xmlns="http://www.w3.org/2000/svg" xmlns:xlink="http://www.w3.org/1999/xlink" x="0px" y="0px"
	 width="64px" height="64px" viewBox="0 0 64 64" enable-background="new 0 0 64 64" xml:space="preserve">
<g>
	<g>
		<linearGradient id="SVGID_1_" gradientUnits="userSpaceOnUse" x1="37.8114" y1="27.79" x2="29.7715" y2="35.8299">
			<stop  offset="0" style="stop-color:#00ADDE"/>
			<stop  offset="0.1716" style="stop-color:#00A1CF"/>
			<stop  offset="0.5077" style="stop-color:#0083A9"/>
			<stop  offset="0.9717" style="stop-color:#005770"/>
			<stop  offset="1" style="stop-color:#00546C"/>
		</linearGradient>
		<path fill="url(#SVGID_1_)" d="M30.615,37.975l0.009,0.321l-0.009,0.32c-0.008,0.206-0.023,0.412-0.045,0.617
			c-0.121-0.002-0.242-0.003-0.363-0.003l-0.28,0.001l-0.08,0l-0.087,0.001l-0.092,0l-0.18,0.006l-0.392,0.014
			c-0.001-0.127-0.004-0.254-0.011-0.38c-0.073-1.553-0.547-3.082-1.36-4.405c-0.087-0.145-0.178-0.288-0.274-0.429
			c0.16-0.16,0.318-0.323,0.474-0.488c0.096-0.101,0.192-0.204,0.287-0.307c0.152-0.165,0.301-0.332,0.448-0.501
			c0.038,0.047,0.075,0.094,0.113,0.141c0.066,0.086,0.125,0.176,0.188,0.264l0.186,0.266c0.032,0.044,0.06,0.09,0.088,0.136
			c0.028,0.046,0.057,0.092,0.084,0.139c0.108,0.187,0.223,0.371,0.315,0.567l0.145,0.29c0.05,0.096,0.092,0.195,0.132,0.296
			c0.08,0.201,0.167,0.398,0.231,0.605c0.068,0.205,0.143,0.408,0.189,0.619l0.078,0.314l0.02,0.079l0.015,0.079l0.029,0.159
			c0.02,0.106,0.04,0.212,0.057,0.318c0.01,0.053,0.015,0.107,0.021,0.16l0.018,0.16l0.033,0.32
			C30.608,37.761,30.612,37.868,30.615,37.975z"/>
		
			<linearGradient id="SVGID_00000062914410927206839070000009341877481161502598_" gradientUnits="userSpaceOnUse" x1="3.2637" y1="24.6702" x2="39.3374" y2="24.6702">
			<stop  offset="0" style="stop-color:#00ADDE"/>
			<stop  offset="0.1716" style="stop-color:#00A1CF"/>
			<stop  offset="0.5077" style="stop-color:#0083A9"/>
			<stop  offset="0.9717" style="stop-color:#005770"/>
			<stop  offset="1" style="stop-color:#00546C"/>
		</linearGradient>
		<path fill="url(#SVGID_00000062914410927206839070000009341877481161502598_)" d="M39.337,17.459
			c-0.204,0.356-0.412,0.708-0.623,1.057c-0.472,0.773-0.962,1.534-1.473,2.279c-1.021,1.49-2.111,2.925-3.276,4.291
			c-1.018,1.195-2.092,2.338-3.222,3.42c-0.196,0.188-0.394,0.374-0.593,0.557c-0.137,0.127-0.276,0.253-0.415,0.378
			c-0.207,0.187-0.415,0.37-0.626,0.552c-0.964,0.833-1.964,1.621-2.999,2.359c-1.056,0.752-2.15,1.45-3.276,2.092l-2.88,1.482
			c-1.08,0.498-2.185,0.947-3.312,1.341c-0.21,0.078-0.424,0.142-0.635,0.215c-0.212,0.071-0.424,0.146-0.639,0.208l-0.644,0.196
			c-0.215,0.064-0.432,0.121-0.647,0.183c-0.432,0.128-0.869,0.227-1.305,0.34c-0.218,0.057-0.439,0.101-0.658,0.152
			c-0.22,0.047-0.439,0.102-0.66,0.144c-0.443,0.088-0.884,0.183-1.33,0.255l-0.668,0.117l-0.672,0.101
			c-0.344,0.056-0.689,0.098-1.035,0.142c-0.597-0.342-1.163-0.758-1.686-1.251c-3.581-3.374-3.749-9.013-0.375-12.594
			c2.478-2.629,6.174-3.418,9.382-2.318c-0.109-3.266,1.033-6.574,3.452-9.14c4.814-5.109,12.856-5.347,17.964-0.534
			C37.723,14.647,38.674,16.002,39.337,17.459z"/>
		
			<linearGradient id="SVGID_00000024688647427431971930000002781449197163115156_" gradientUnits="userSpaceOnUse" x1="21.7313" y1="34.4646" x2="31.9301" y2="27.0947">
			<stop  offset="0" style="stop-color:#00ADDE"/>
			<stop  offset="0.1716" style="stop-color:#00A1CF"/>
			<stop  offset="0.5077" style="stop-color:#0083A9"/>
			<stop  offset="0.9717" style="stop-color:#005770"/>
			<stop  offset="1" style="stop-color:#00546C"/>
		</linearGradient>
		<path fill="url(#SVGID_00000024688647427431971930000002781449197163115156_)" d="M39.89,18.1v0.652
			c-0.076,0.18-0.153,0.358-0.232,0.536c-0.373,0.837-0.784,1.658-1.222,2.464c-0.881,1.611-1.884,3.16-2.992,4.633
			c-1.007,1.335-2.104,2.608-3.285,3.801c-0.211,0.215-0.426,0.426-0.643,0.636c-0.136,0.131-0.273,0.261-0.411,0.388
			c-0.223,0.209-0.448,0.414-0.677,0.616c-0.49,0.435-0.993,0.857-1.507,1.263c-0.45,0.357-0.909,0.702-1.376,1.036
			c-0.007,0.005-0.015,0.011-0.023,0.016c-3.014,2.146-6.394,3.794-9.945,4.803c-0.221,0.067-0.445,0.123-0.669,0.182
			c-0.223,0.058-0.446,0.12-0.672,0.169l-0.675,0.156c-0.225,0.052-0.453,0.091-0.679,0.136c-0.451,0.093-0.908,0.163-1.362,0.236
			c-0.227,0.037-0.456,0.061-0.684,0.092l-0.342,0.044c-0.114,0.015-0.228,0.029-0.342,0.038c-0.458,0.041-0.914,0.093-1.373,0.114
			l-0.687,0.039l-0.687,0.017c-0.14,0.005-0.281,0.007-0.421,0.008v-0.356C9.11,39.8,9.239,39.781,9.368,39.76l0.672-0.102
			l0.668-0.117c0.446-0.072,0.888-0.167,1.33-0.255c0.221-0.042,0.44-0.096,0.66-0.144c0.219-0.051,0.44-0.095,0.658-0.152
			c0.436-0.112,0.873-0.212,1.305-0.34c0.215-0.061,0.432-0.118,0.647-0.183l0.644-0.196c0.215-0.062,0.426-0.137,0.638-0.208
			c0.212-0.073,0.426-0.137,0.636-0.215c3.38-1.18,6.565-2.847,9.469-4.914c1.012-0.721,1.99-1.49,2.933-2.302
			c0.218-0.188,0.434-0.378,0.648-0.57c0.139-0.124,0.277-0.25,0.415-0.377c0.209-0.191,0.415-0.386,0.621-0.582
			c1.135-1.086,2.215-2.234,3.238-3.435c1.165-1.365,2.256-2.801,3.276-4.291c0.51-0.745,1-1.506,1.473-2.279
			C39.499,18.77,39.697,18.436,39.89,18.1z"/>
		
			<linearGradient id="SVGID_00000109009073360967671170000002405019339635981980_" gradientUnits="userSpaceOnUse" x1="18.6498" y1="41.3344" x2="48.2226" y2="41.3344">
			<stop  offset="0" style="stop-color:#E4187D"/>
			<stop  offset="0.1365" style="stop-color:#E3187B"/>
			<stop  offset="0.2735" style="stop-color:#DE1875"/>
			<stop  offset="0.4107" style="stop-color:#D7176A"/>
			<stop  offset="0.5482" style="stop-color:#CC175B"/>
			<stop  offset="0.6859" style="stop-color:#BE1648"/>
			<stop  offset="0.8239" style="stop-color:#AC1431"/>
			<stop  offset="0.9596" style="stop-color:#971316"/>
			<stop  offset="1" style="stop-color:#90120D"/>
		</linearGradient>
		<path fill="url(#SVGID_00000109009073360967671170000002405019339635981980_)" d="M48.223,43.712
			c-1.184-0.476-2.383-0.871-3.588-1.234c-1.207-0.356-2.421-0.67-3.642-0.937c-2.364-0.518-4.754-0.871-7.158-1.035
			c-0.079-0.006-0.158-0.011-0.237-0.016c-0.196-0.015-0.392-0.027-0.588-0.038c-0.037-0.002-0.074-0.004-0.112-0.006
			c-0.286-0.016-0.573-0.028-0.86-0.037c-0.723-0.023-1.447-0.028-2.171-0.02c-1.246,0-2.491,0.088-3.738,0.178
			c-0.621,0.069-1.247,0.108-1.868,0.197l-0.935,0.115l-0.932,0.143l-0.468,0.068c-0.157,0.02-0.31,0.056-0.466,0.081
			c-0.311,0.054-0.622,0.111-0.935,0.162l-0.235,0.039c-0.078,0.014-0.155,0.032-0.233,0.047l-0.467,0.093
			c-0.313,0.058-0.624,0.121-0.941,0.175c0.29-0.134,0.583-0.257,0.876-0.386c0.295-0.122,0.588-0.256,0.889-0.36
			c0.601-0.216,1.202-0.444,1.818-0.618l0.923-0.273l0.935-0.23l0.469-0.113c0.157-0.037,0.315-0.063,0.472-0.095
			c0.315-0.062,0.631-0.125,0.948-0.183c0.317-0.056,0.636-0.098,0.954-0.147c0.319-0.046,0.638-0.093,0.959-0.121
			c0.32-0.034,0.641-0.067,0.962-0.096c0.321-0.024,0.643-0.039,0.965-0.06l0.483-0.026l0.484-0.008
			c0.323-0.004,0.645-0.014,0.968-0.012l0.44,0.011l0.527,0.014l0.242,0.007l0.124,0.007l0.118,0.007l0.107,0.007l0.376,0.023
			c0.163,0.01,0.326,0.022,0.488,0.035c2.412,0.191,4.801,0.654,7.105,1.368c1.229,0.383,2.435,0.839,3.601,1.375
			c0.581,0.272,1.155,0.559,1.715,0.873C47.161,42.995,47.708,43.333,48.223,43.712z"/>
		
			<linearGradient id="SVGID_00000161591554602207676020000012336173198190651796_" gradientUnits="userSpaceOnUse" x1="38.8862" y1="28.8647" x2="30.8462" y2="36.9046">
			<stop  offset="0" style="stop-color:#00ADDE"/>
			<stop  offset="0.1716" style="stop-color:#00A1CF"/>
			<stop  offset="0.5077" style="stop-color:#0083A9"/>
			<stop  offset="0.9717" style="stop-color:#005770"/>
			<stop  offset="1" style="stop-color:#00546C"/>
		</linearGradient>
		<path fill="url(#SVGID_00000161591554602207676020000012336173198190651796_)" d="M34.348,37.382l-0.015,0.432l-0.039,0.429
			c-0.028,0.277-0.065,0.552-0.112,0.825c-0.162-0.013-0.325-0.025-0.488-0.035l-0.376-0.023l-0.107-0.007l-0.118-0.007
			l-0.124-0.007l-0.242-0.007l-0.527-0.014c0.009-0.171,0.015-0.341,0.018-0.512c0.032-2.093-0.478-4.186-1.458-6.031
			c-0.105-0.202-0.215-0.402-0.332-0.599c0.229-0.202,0.454-0.407,0.677-0.616c0.138-0.128,0.275-0.258,0.411-0.388
			c0.218-0.21,0.432-0.421,0.643-0.636c0.047,0.066,0.093,0.133,0.14,0.199c0.081,0.12,0.153,0.247,0.23,0.371l0.227,0.373
			c0.039,0.061,0.074,0.126,0.107,0.191c0.034,0.064,0.069,0.129,0.101,0.193c0.129,0.261,0.268,0.517,0.375,0.788l0.17,0.402
			c0.059,0.133,0.107,0.27,0.153,0.409c0.091,0.277,0.191,0.549,0.26,0.832c0.074,0.281,0.158,0.56,0.202,0.848l0.079,0.428
			l0.02,0.107l0.014,0.108l0.026,0.215c0.018,0.144,0.036,0.288,0.05,0.432c0.009,0.072,0.012,0.145,0.015,0.217l0.01,0.217
			l0.018,0.432C34.357,37.093,34.352,37.238,34.348,37.382z"/>
		<g>
			
				<linearGradient id="SVGID_00000164479905767626123640000013107804581924778626_" gradientUnits="userSpaceOnUse" x1="66.5947" y1="19.6408" x2="44.3112" y2="29.2688">
				<stop  offset="0" style="stop-color:#E4187D"/>
				<stop  offset="0.1303" style="stop-color:#E3187B"/>
				<stop  offset="0.2669" style="stop-color:#DE1874"/>
				<stop  offset="0.4064" style="stop-color:#D61769"/>
				<stop  offset="0.5478" style="stop-color:#CB1759"/>
				<stop  offset="0.6909" style="stop-color:#BC1646"/>
				<stop  offset="0.8352" style="stop-color:#AA142E"/>
				<stop  offset="0.978" style="stop-color:#941212"/>
				<stop  offset="1" style="stop-color:#90120D"/>
			</linearGradient>
			<path fill="url(#SVGID_00000164479905767626123640000013107804581924778626_)" d="M41.065,18.988
				c1.095,0.171,2.171,0.547,3.174,1.083c1.003,0.536,1.932,1.237,2.747,2.06c0.101,0.104,0.207,0.204,0.303,0.312l0.287,0.328
				c0.048,0.055,0.095,0.111,0.142,0.166c0.046,0.057,0.097,0.11,0.138,0.169l0.261,0.351c0.086,0.118,0.176,0.233,0.259,0.354
				c0.081,0.122,0.156,0.247,0.235,0.37c0.077,0.124,0.157,0.247,0.231,0.374l0.21,0.386c0.07,0.129,0.14,0.258,0.206,0.389
				l0.178,0.402l0.178,0.403l0.153,0.413l0.146,0.416c0.045,0.14,0.081,0.282,0.121,0.424l0.118,0.425
				c0.021,0.07,0.037,0.142,0.051,0.214c0.015,0.072,0.031,0.144,0.045,0.216c0.053,0.289,0.119,0.576,0.148,0.868l0.055,0.437
				c0.021,0.145,0.03,0.292,0.036,0.439c0.012,0.294,0.037,0.586,0.026,0.88c-0.005,0.294,0.001,0.587-0.034,0.879l-0.039,0.438
				l-0.01,0.109l-0.016,0.109l-0.033,0.217c-0.022,0.145-0.043,0.289-0.068,0.433c-0.01,0.072-0.027,0.144-0.044,0.215l-0.049,0.214
				l-0.098,0.426c-0.036,0.141-0.079,0.281-0.122,0.42l-0.129,0.416l-0.153,0.408c-0.416,1.082-0.984,2.097-1.686,2.991
				l-0.131,0.168l-0.14,0.161c-0.093,0.107-0.185,0.214-0.28,0.319c-0.091,0.107-0.194,0.205-0.294,0.304
				c-0.099,0.1-0.201,0.197-0.302,0.294l-0.076,0.072l-0.08,0.069c-0.053,0.046-0.107,0.091-0.161,0.136l-0.323,0.266
				c-0.111,0.085-0.228,0.163-0.341,0.244l-0.17,0.119l-0.173,0.115l0.004-0.004l-0.001,0l-0.099-0.086l0,0l0.001-0.001l0.002-0.002
				c0.755-0.763,1.413-1.618,1.956-2.54c0.548-0.919,0.983-1.904,1.289-2.929c0.306-1.024,0.482-2.086,0.523-3.153
				c0.041-1.067-0.052-2.139-0.276-3.182c-0.216-1.045-0.56-2.064-1.027-3.024c-0.467-0.96-1.056-1.861-1.748-2.676
				C45.494,22,44.7,21.273,43.828,20.652l-0.326-0.233c-0.11-0.076-0.226-0.143-0.339-0.215l-0.341-0.213
				c-0.115-0.068-0.235-0.129-0.352-0.194l-0.353-0.192c-0.119-0.061-0.242-0.114-0.363-0.171l-0.365-0.169
				c-0.123-0.054-0.248-0.103-0.372-0.154L41.065,18.988z"/>
			<g>
				<g>
					
						<linearGradient id="SVGID_00000041274537177910200260000018097813198496884152_" gradientUnits="userSpaceOnUse" x1="67.635" y1="22.0485" x2="45.3515" y2="31.6765">
						<stop  offset="0" style="stop-color:#E4187D"/>
						<stop  offset="0.1303" style="stop-color:#E3187B"/>
						<stop  offset="0.2669" style="stop-color:#DE1874"/>
						<stop  offset="0.4064" style="stop-color:#D61769"/>
						<stop  offset="0.5478" style="stop-color:#CB1759"/>
						<stop  offset="0.6909" style="stop-color:#BC1646"/>
						<stop  offset="0.8352" style="stop-color:#AA142E"/>
						<stop  offset="0.978" style="stop-color:#941212"/>
						<stop  offset="1" style="stop-color:#90120D"/>
					</linearGradient>
					<path fill="url(#SVGID_00000041274537177910200260000018097813198496884152_)" d="M53.726,28.027
						c-0.204-0.013-0.387-0.153-0.444-0.361c-0.072-0.262,0.082-0.533,0.344-0.605l6.487-1.784c0.262-0.072,0.533,0.082,0.605,0.344
						c0.072,0.262-0.082,0.533-0.344,0.605l-6.487,1.784C53.833,28.025,53.779,28.03,53.726,28.027z"/>
				</g>
				<g>
					
						<linearGradient id="SVGID_00000138545629791732900310000003734789909858653583_" gradientUnits="userSpaceOnUse" x1="64.6162" y1="15.0615" x2="42.3327" y2="24.6895">
						<stop  offset="0" style="stop-color:#E4187D"/>
						<stop  offset="0.1303" style="stop-color:#E3187B"/>
						<stop  offset="0.2669" style="stop-color:#DE1874"/>
						<stop  offset="0.4064" style="stop-color:#D61769"/>
						<stop  offset="0.5478" style="stop-color:#CB1759"/>
						<stop  offset="0.6909" style="stop-color:#BC1646"/>
						<stop  offset="0.8352" style="stop-color:#AA142E"/>
						<stop  offset="0.978" style="stop-color:#941212"/>
						<stop  offset="1" style="stop-color:#90120D"/>
					</linearGradient>
					<path fill="url(#SVGID_00000138545629791732900310000003734789909858653583_)" d="M50.387,22.551
						c-0.109-0.007-0.216-0.05-0.302-0.129c-0.2-0.184-0.213-0.496-0.029-0.696l2.638-2.866c0.184-0.2,0.496-0.213,0.696-0.029
						c0.2,0.184,0.213,0.496,0.029,0.696l-2.638,2.866C50.675,22.507,50.53,22.56,50.387,22.551z"/>
				</g>
				<g>
					
						<linearGradient id="SVGID_00000123408535377370648230000011077182528118838691_" gradientUnits="userSpaceOnUse" x1="70.2701" y1="28.1471" x2="47.9866" y2="37.7751">
						<stop  offset="0" style="stop-color:#E4187D"/>
						<stop  offset="0.1303" style="stop-color:#E3187B"/>
						<stop  offset="0.2669" style="stop-color:#DE1874"/>
						<stop  offset="0.4064" style="stop-color:#D61769"/>
						<stop  offset="0.5478" style="stop-color:#CB1759"/>
						<stop  offset="0.6909" style="stop-color:#BC1646"/>
						<stop  offset="0.8352" style="stop-color:#AA142E"/>
						<stop  offset="0.978" style="stop-color:#941212"/>
						<stop  offset="1" style="stop-color:#90120D"/>
					</linearGradient>
					<path fill="url(#SVGID_00000123408535377370648230000011077182528118838691_)" d="M57.389,35.555
						c-0.037-0.002-0.074-0.009-0.11-0.02l-3.732-1.114c-0.261-0.078-0.409-0.352-0.331-0.613s0.352-0.409,0.613-0.331l3.732,1.114
						c0.261,0.078,0.409,0.352,0.331,0.613C57.824,35.428,57.612,35.569,57.389,35.555z"/>
				</g>
			</g>
		</g>
	</g>
	<g>
		
			<radialGradient id="SVGID_00000107587689588781608050000005986436102413366662_" cx="8.6535" cy="49.7486" r="5.2429" gradientUnits="userSpaceOnUse">
			<stop  offset="0" style="stop-color:#00ADDE"/>
			<stop  offset="0.1716" style="stop-color:#00A1CF"/>
			<stop  offset="0.5077" style="stop-color:#0083A9"/>
			<stop  offset="0.9717" style="stop-color:#005770"/>
			<stop  offset="1" style="stop-color:#00546C"/>
		</radialGradient>
		<path fill="url(#SVGID_00000107587689588781608050000005986436102413366662_)" d="M6.652,51.032v-1.481h2.064
			c0.302,0,0.546-0.049,0.732-0.147c0.187-0.098,0.324-0.233,0.413-0.404c0.089-0.171,0.133-0.368,0.133-0.591
			c0-0.226-0.044-0.437-0.133-0.633c-0.089-0.196-0.226-0.354-0.413-0.475C9.261,47.18,9.017,47.12,8.716,47.12H7.297v6.745H5.453
			v-8.232h3.262c0.652,0,1.213,0.12,1.682,0.359c0.469,0.239,0.829,0.566,1.08,0.981c0.251,0.415,0.376,0.89,0.376,1.425
			c0,0.531-0.125,0.995-0.376,1.391c-0.251,0.396-0.611,0.702-1.08,0.919c-0.469,0.217-1.03,0.325-1.682,0.325H6.652z"/>
		
			<linearGradient id="SVGID_00000028317462565963960060000007273821946067461790_" gradientUnits="userSpaceOnUse" x1="12.7243" y1="49.7486" x2="19.8257" y2="49.7486">
			<stop  offset="0" style="stop-color:#00ADDE"/>
			<stop  offset="0.1716" style="stop-color:#00A1CF"/>
			<stop  offset="0.5077" style="stop-color:#0083A9"/>
			<stop  offset="0.9717" style="stop-color:#005770"/>
			<stop  offset="1" style="stop-color:#00546C"/>
		</linearGradient>
		<path fill="url(#SVGID_00000028317462565963960060000007273821946067461790_)" d="M19.826,49.913c0,0.844-0.15,1.57-0.449,2.177
			c-0.3,0.607-0.716,1.073-1.25,1.399c-0.533,0.326-1.147,0.489-1.84,0.489c-0.694,0-1.309-0.163-1.846-0.489
			c-0.537-0.326-0.957-0.792-1.261-1.399c-0.303-0.607-0.455-1.332-0.455-2.177V49.59c0-0.844,0.151-1.57,0.452-2.177
			c0.302-0.607,0.72-1.074,1.255-1.402c0.535-0.328,1.15-0.492,1.843-0.492c0.694,0,1.308,0.164,1.843,0.492
			c0.535,0.328,0.954,0.795,1.255,1.402c0.302,0.607,0.452,1.333,0.452,2.177V49.913z M17.966,49.579
			c0-0.558-0.066-1.025-0.198-1.402c-0.132-0.377-0.324-0.662-0.577-0.857c-0.253-0.194-0.558-0.291-0.916-0.291
			c-0.366,0-0.673,0.097-0.922,0.291c-0.249,0.194-0.438,0.48-0.568,0.857c-0.13,0.377-0.195,0.844-0.195,1.402v0.334
			c0,0.55,0.066,1.016,0.198,1.397c0.132,0.381,0.323,0.67,0.574,0.868c0.251,0.198,0.559,0.297,0.924,0.297
			c0.358,0,0.662-0.099,0.913-0.297c0.251-0.198,0.441-0.487,0.571-0.868c0.13-0.381,0.195-0.846,0.195-1.397V49.579z"/>
		
			<radialGradient id="SVGID_00000121958520057197430790000008056950952787112066_" cx="23.8598" cy="49.7486" r="7.399" gradientUnits="userSpaceOnUse">
			<stop  offset="0" style="stop-color:#00ADDE"/>
			<stop  offset="0.1716" style="stop-color:#00A1CF"/>
			<stop  offset="0.5077" style="stop-color:#0083A9"/>
			<stop  offset="0.9717" style="stop-color:#005770"/>
			<stop  offset="1" style="stop-color:#00546C"/>
		</radialGradient>
		<path fill="url(#SVGID_00000121958520057197430790000008056950952787112066_)" d="M25.214,51.688c0-0.181-0.038-0.337-0.113-0.469
			c-0.075-0.132-0.222-0.258-0.441-0.379c-0.219-0.121-0.543-0.249-0.972-0.384c-0.369-0.121-0.721-0.257-1.054-0.41
			c-0.334-0.153-0.63-0.332-0.888-0.537c-0.258-0.205-0.462-0.445-0.611-0.718c-0.149-0.273-0.223-0.593-0.223-0.958
			c0-0.467,0.133-0.874,0.399-1.218c0.266-0.345,0.631-0.613,1.097-0.806c0.465-0.192,0.998-0.288,1.597-0.288
			c0.611,0,1.144,0.107,1.6,0.319c0.456,0.213,0.812,0.512,1.069,0.896c0.256,0.384,0.384,0.829,0.384,1.334H25.22
			c0-0.215-0.044-0.404-0.133-0.568c-0.089-0.164-0.225-0.292-0.41-0.384c-0.185-0.092-0.42-0.138-0.707-0.138
			c-0.271,0-0.499,0.039-0.681,0.116c-0.183,0.077-0.319,0.181-0.407,0.311c-0.089,0.13-0.133,0.278-0.133,0.444
			c0,0.17,0.061,0.319,0.184,0.447c0.122,0.128,0.301,0.246,0.534,0.353c0.234,0.107,0.515,0.214,0.842,0.319
			c0.599,0.185,1.103,0.4,1.51,0.645c0.407,0.245,0.714,0.535,0.922,0.871c0.207,0.336,0.311,0.733,0.311,1.193
			c0,0.483-0.124,0.896-0.37,1.241c-0.247,0.345-0.596,0.608-1.049,0.789c-0.452,0.181-0.984,0.271-1.594,0.271
			c-0.415,0-0.822-0.054-1.221-0.161c-0.4-0.107-0.762-0.274-1.088-0.5c-0.326-0.226-0.585-0.513-0.777-0.859
			c-0.192-0.347-0.288-0.758-0.288-1.233h1.843c0,0.241,0.035,0.445,0.105,0.611c0.07,0.166,0.171,0.301,0.305,0.404
			c0.134,0.104,0.296,0.178,0.486,0.223c0.19,0.045,0.402,0.068,0.636,0.068c0.275,0,0.498-0.038,0.67-0.113
			c0.171-0.075,0.299-0.177,0.382-0.305C25.172,51.984,25.214,51.842,25.214,51.688z"/>
		
			<radialGradient id="SVGID_00000147220395920436472740000016253228426675953807_" cx="31.0657" cy="49.7486" r="5.8562" gradientUnits="userSpaceOnUse">
			<stop  offset="0" style="stop-color:#00ADDE"/>
			<stop  offset="0.1716" style="stop-color:#00A1CF"/>
			<stop  offset="0.5077" style="stop-color:#0083A9"/>
			<stop  offset="0.9717" style="stop-color:#005770"/>
			<stop  offset="1" style="stop-color:#00546C"/>
		</radialGradient>
		<path fill="url(#SVGID_00000147220395920436472740000016253228426675953807_)" d="M34.452,47.12h-6.773v-1.487h6.773V47.12z
			 M31.965,53.865h-1.832v-8.232h1.832V53.865z"/>
		
			<linearGradient id="SVGID_00000155136963166854122910000002243565736489533361_" gradientUnits="userSpaceOnUse" x1="32.6305" y1="49.7486" x2="59.958" y2="49.7486">
			<stop  offset="0" style="stop-color:#E4187D"/>
			<stop  offset="0.1303" style="stop-color:#E3187B"/>
			<stop  offset="0.2669" style="stop-color:#DE1874"/>
			<stop  offset="0.4064" style="stop-color:#D61769"/>
			<stop  offset="0.5478" style="stop-color:#CB1759"/>
			<stop  offset="0.6909" style="stop-color:#BC1646"/>
			<stop  offset="0.8352" style="stop-color:#AA142E"/>
			<stop  offset="0.978" style="stop-color:#941212"/>
			<stop  offset="1" style="stop-color:#90120D"/>
		</linearGradient>
		<path fill="url(#SVGID_00000155136963166854122910000002243565736489533361_)" d="M37.2,53.865h-1.838v-8.232H37.2V53.865z
			 M40.734,53.865h-4.133v-1.481h4.133V53.865z"/>
		
			<linearGradient id="SVGID_00000177445055706943652300000003178507469868461985_" gradientUnits="userSpaceOnUse" x1="32.6305" y1="49.5705" x2="59.958" y2="49.5705">
			<stop  offset="0" style="stop-color:#E4187D"/>
			<stop  offset="0.1303" style="stop-color:#E3187B"/>
			<stop  offset="0.2669" style="stop-color:#DE1874"/>
			<stop  offset="0.4064" style="stop-color:#D61769"/>
			<stop  offset="0.5478" style="stop-color:#CB1759"/>
			<stop  offset="0.6909" style="stop-color:#BC1646"/>
			<stop  offset="0.8352" style="stop-color:#AA142E"/>
			<stop  offset="0.978" style="stop-color:#941212"/>
			<stop  offset="1" style="stop-color:#90120D"/>
		</linearGradient>
		<path fill="url(#SVGID_00000177445055706943652300000003178507469868461985_)" d="M41.537,46.175c0-0.264,0.089-0.48,0.269-0.647
			c0.179-0.168,0.417-0.252,0.715-0.252c0.298,0,0.536,0.084,0.715,0.252c0.179,0.168,0.269,0.384,0.269,0.647
			c0,0.26-0.09,0.475-0.269,0.645c-0.179,0.17-0.417,0.254-0.715,0.254c-0.298,0-0.536-0.085-0.715-0.254
			C41.626,46.65,41.537,46.435,41.537,46.175z M43.414,53.865h-1.77v-6.118h1.77V53.865z"/>
		
			<linearGradient id="SVGID_00000111874661215184312040000007445073745823441029_" gradientUnits="userSpaceOnUse" x1="32.6305" y1="50.7493" x2="59.958" y2="50.7493">
			<stop  offset="0" style="stop-color:#E4187D"/>
			<stop  offset="0.1303" style="stop-color:#E3187B"/>
			<stop  offset="0.2669" style="stop-color:#DE1874"/>
			<stop  offset="0.4064" style="stop-color:#D61769"/>
			<stop  offset="0.5478" style="stop-color:#CB1759"/>
			<stop  offset="0.6909" style="stop-color:#BC1646"/>
			<stop  offset="0.8352" style="stop-color:#AA142E"/>
			<stop  offset="0.978" style="stop-color:#941212"/>
			<stop  offset="1" style="stop-color:#90120D"/>
		</linearGradient>
		<path fill="url(#SVGID_00000111874661215184312040000007445073745823441029_)" d="M46.41,53.865h-1.764v-6.118h1.657l0.107,1.306
			V53.865z M45.709,50.631c0-0.626,0.1-1.162,0.3-1.609c0.2-0.447,0.48-0.79,0.84-1.029c0.36-0.239,0.777-0.359,1.252-0.359
			c0.384,0,0.721,0.075,1.009,0.226c0.288,0.151,0.515,0.398,0.678,0.741c0.164,0.343,0.246,0.809,0.246,1.397v3.867h-1.775v-3.879
			c0-0.245-0.035-0.434-0.105-0.568c-0.07-0.134-0.173-0.226-0.311-0.277c-0.138-0.051-0.304-0.076-0.5-0.076
			c-0.204,0-0.379,0.038-0.526,0.113c-0.147,0.075-0.269,0.182-0.365,0.319c-0.096,0.138-0.167,0.301-0.212,0.489
			c-0.045,0.189-0.068,0.396-0.068,0.622L45.709,50.631z"/>
		
			<linearGradient id="SVGID_00000084494905874422892780000016210662108993296301_" gradientUnits="userSpaceOnUse" x1="32.6305" y1="49.5196" x2="59.958" y2="49.5196">
			<stop  offset="0" style="stop-color:#E4187D"/>
			<stop  offset="0.1303" style="stop-color:#E3187B"/>
			<stop  offset="0.2669" style="stop-color:#DE1874"/>
			<stop  offset="0.4064" style="stop-color:#D61769"/>
			<stop  offset="0.5478" style="stop-color:#CB1759"/>
			<stop  offset="0.6909" style="stop-color:#BC1646"/>
			<stop  offset="0.8352" style="stop-color:#AA142E"/>
			<stop  offset="0.978" style="stop-color:#941212"/>
			<stop  offset="1" style="stop-color:#90120D"/>
		</linearGradient>
		<path fill="url(#SVGID_00000084494905874422892780000016210662108993296301_)" d="M52.963,53.865h-1.77v-8.69h1.77V53.865z
			 M54.19,50.834l-1.447,1.442l-0.673-1.238l1.153-1.504l1.481-1.787h2.12L54.19,50.834z M53.263,51.083l1.25-1.018L57,53.865h-2.03
			L53.263,51.083z"/>
	</g>
</g>
</svg>
